<svg xmlns="http://www.w3.org/2000/svg" xmlns:xlink="http://www.w3.org/1999/xlink" width="500" zoomAndPan="magnify" viewBox="0 0 375 374.999991" height="500" preserveAspectRatio="xMidYMid meet" version="1.0"><defs><clipPath id="e561e412d1"><path d="M 3.402344 38 L 371.652344 38 L 371.652344 320.898438 L 3.402344 320.898438 Z M 3.402344 38 " clip-rule="nonzero"/></clipPath></defs><g clip-path="url(#e561e412d1)"><path fill="#5d24ff" d="M 346.234375 152.78125 L 346.234375 121.886719 C 346.234375 109.03125 335.714844 98.511719 322.855469 98.511719 L 113.277344 98.511719 L 263.289062 82.140625 L 263.289062 54.921875 C 263.289062 49.558594 260.972656 44.949219 256.667969 41.75 C 252.363281 38.550781 247.285156 37.660156 242.148438 39.207031 L 56.773438 94.992188 C 49.726562 97.109375 45.089844 103.347656 45.089844 110.707031 L 45.089844 163.621094 L 108.074219 163.621094 C 118.871094 163.621094 127.695312 172.453125 127.695312 183.242188 C 127.695312 194.035156 118.863281 202.859375 108.074219 202.859375 L 23.023438 202.859375 C 12.234375 202.867188 3.402344 211.699219 3.402344 222.488281 C 3.402344 233.277344 12.234375 242.109375 23.023438 242.109375 L 163.511719 242.109375 C 174.308594 242.109375 183.132812 250.9375 183.132812 261.726562 C 183.132812 272.515625 174.300781 281.347656 163.511719 281.347656 L 106.367188 281.347656 C 95.570312 281.347656 86.746094 290.179688 86.746094 300.96875 C 86.746094 311.765625 95.578125 320.589844 106.367188 320.589844 L 322.851562 320.589844 C 335.707031 320.589844 346.226562 310.070312 346.226562 297.210938 L 346.226562 266.320312 L 302.863281 266.320312 C 299.035156 266.320312 295.910156 263.191406 295.910156 259.363281 C 295.910156 255.535156 299.035156 252.410156 302.863281 252.410156 L 358.347656 252.410156 C 365.648438 252.410156 371.609375 246.449219 371.609375 239.148438 L 371.609375 179.953125 C 371.609375 172.652344 365.65625 166.691406 358.347656 166.691406 L 278.824219 166.691406 C 274.996094 166.691406 271.863281 163.5625 271.863281 159.734375 C 271.863281 155.90625 274.992188 152.773438 278.824219 152.773438 L 346.234375 152.773438 Z M 276.707031 197.382812 C 269.980469 197.382812 264.527344 202.835938 264.527344 209.558594 C 264.527344 216.285156 269.980469 221.734375 276.707031 221.734375 C 283.429688 221.734375 288.882812 216.285156 288.882812 209.558594 C 288.882812 202.828125 283.429688 197.382812 276.707031 197.382812 Z M 247.761719 209.554688 C 247.761719 193.632812 260.785156 180.609375 276.707031 180.609375 L 357.699219 180.609375 L 357.699219 238.5 L 276.707031 238.5 C 260.792969 238.5 247.761719 225.472656 247.761719 209.554688 Z M 247.761719 209.554688 " fill-opacity="1" fill-rule="evenodd"/></g></svg>